<svg width="350" height="350" viewBox="0 0 350 350" fill="none" xmlns="http://www.w3.org/2000/svg">
<path fill-rule="evenodd" clip-rule="evenodd" d="M175 216.321V207.902H41C32.1634 207.902 25 215.066 25 223.902V241.902C25 250.739 32.1634 257.902 41 257.902H150.993L175 216.321ZM175 242.321L166.004 257.902H175V242.321Z" fill="#07599C"/>
<path fill-rule="evenodd" clip-rule="evenodd" d="M185.011 91.0485H175V108.388L185.011 91.0485ZM175 134.388V141.049H309C317.837 141.049 325 133.885 325 125.049V107.049C325 98.212 317.837 91.0485 309 91.0485H200.022L175 134.388Z" fill="#07599C"/>
<path fill-rule="evenodd" clip-rule="evenodd" d="M213.334 42.0027C217.752 34.35 215.13 24.5645 207.478 20.1463L191.889 11.1463C184.237 6.72799 174.451 9.34999 170.033 17.0027L115.146 112.07L138.222 152.038C144.497 152.93 150.971 150.019 154.334 144.194L213.334 42.0027ZM116.855 141.03L108.887 127.228C108.904 132.728 111.759 138.072 116.855 141.03Z" fill="#FFBA08"/>
<path fill-rule="evenodd" clip-rule="evenodd" d="M211.934 197.699C205.829 197.042 199.626 199.951 196.358 205.61L137.358 307.801C132.94 315.454 135.562 325.239 143.215 329.657L158.803 338.658C166.456 343.076 176.241 340.454 180.659 332.801L235.297 238.166L211.934 197.699ZM241.787 223.406C242.07 217.606 239.177 211.857 233.803 208.754L233.09 208.342L241.787 223.406Z" fill="#FFBA08"/>
<path fill-rule="evenodd" clip-rule="evenodd" d="M79.1902 75.7842C74.7719 68.1315 64.9865 65.5095 57.3338 69.9278L41.7453 78.9278C34.0927 83.346 31.4707 93.1315 35.8889 100.784L90.3263 195.072H137.5C140.9 190.145 141.382 183.504 138.19 177.975L79.1902 75.7842ZM118.06 208.072H99.5484C104.485 211.534 111.179 212.045 116.745 208.832L118.06 208.072Z" fill="#EE3D24"/>
<path fill-rule="evenodd" clip-rule="evenodd" d="M249.738 141.072C244.909 138.152 238.678 137.881 233.445 140.902L233.15 141.072H249.738ZM259.524 154.072H213.116C209.335 159.049 208.679 166.006 212 171.758L271 273.949C275.418 281.602 285.204 284.224 292.856 279.806L308.445 270.806C316.097 266.388 318.719 256.602 314.301 248.949L259.524 154.072Z" fill="#EE3D24"/>
<path fill-rule="evenodd" clip-rule="evenodd" d="M171.141 141.072L199.767 91.4912C206.177 93.3991 212.468 96.0816 218.515 99.5724C235.59 109.431 248.059 124.203 255.167 141.072H171.141ZM115.033 111.868L144.012 162.061L186.401 88.6419C160.533 85.2384 134.135 93.6793 115.033 111.868ZM105.903 122.055L148.06 195.072H90.3813C85.4071 174.202 88.0962 151.464 99.6703 131.417C101.572 128.123 103.656 125.001 105.903 122.055ZM206.349 188.023L164.072 261.248C189.852 264.505 216.114 256.014 235.117 237.85L206.349 188.023ZM244.232 227.638C246.438 224.734 248.487 221.658 250.359 218.417C262.06 198.149 264.68 175.13 259.481 154.072H201.759L244.232 227.638ZM179.762 208.072H94.5755C101.632 225.228 114.207 240.268 131.515 250.261C137.689 253.825 144.118 256.547 150.669 258.462L179.762 208.072Z" fill="#121212"/>
</svg>
